<svg width="281" height="30" viewBox="0 0 281 30" fill="none" xmlns="http://www.w3.org/2000/svg">
<rect width="30" height="30" rx="6" fill="white"/>
<path fill-rule="evenodd" clip-rule="evenodd" d="M17.7222 9H18.2778C19.0449 9 19.6667 9.74619 19.6667 10.6667V19.3333C19.6667 20.2538 19.0449 21 18.2778 21H17.7222C16.9552 21 16.3333 20.2538 16.3333 19.3333V10.6667C16.3333 9.74619 16.9552 9 17.7222 9ZM11.7222 9H12.2778C13.0449 9 13.6667 9.74619 13.6667 10.6667V19.3333C13.6667 20.2538 13.0449 21 12.2778 21H11.7222C10.9552 21 10.3333 20.2538 10.3333 19.3333V10.6667C10.3333 9.74619 10.9552 9 11.7222 9Z" fill="black"/>
<rect x="79.6571" y="7" width="2.31429" height="16" rx="0.5" fill="white"/>
<rect x="98.1714" y="7" width="2.31429" height="16" rx="0.5" fill="white"/>
<rect x="88.9143" y="6" width="2.31429" height="18" rx="0.5" fill="white"/>
<rect x="84.2857" y="5" width="2.31429" height="20" rx="0.5" fill="white"/>
<rect x="75.0286" y="9" width="2.31429" height="12" rx="0.5" fill="white"/>
<rect x="93.5428" y="9" width="2.31429" height="12" rx="0.5" fill="white"/>
<rect x="70.4" y="11" width="2.31429" height="8" rx="0.5" fill="white"/>
<rect x="102.8" y="11" width="2.31429" height="8" rx="0.5" fill="white"/>
<rect x="116.686" y="11" width="2.31429" height="8" rx="0.5" fill="white"/>
<rect x="65.7714" y="13" width="2.31429" height="4" rx="0.5" fill="white"/>
<rect x="107.429" y="13" width="2.31429" height="4" rx="0.5" fill="white"/>
<rect x="121.314" y="13" width="2.31429" height="4" rx="0.5" fill="white"/>
<rect x="125.943" y="14" width="2.31429" height="2" rx="0.5" fill="white"/>
<rect x="130.571" y="14" width="2.31429" height="2" rx="0.5" fill="white"/>
<rect x="135.2" y="11" width="2.31429" height="8" rx="0.5" fill="white"/>
<rect x="139.829" y="8" width="2.31429" height="14" rx="0.5" fill="white"/>
<rect x="144.457" y="9" width="2.31429" height="12" rx="0.5" fill="#A2A2A2"/>
<rect x="195.371" y="9" width="2.31429" height="12" rx="0.5" fill="#A2A2A2"/>
<rect x="149.086" y="8" width="2.31429" height="14" rx="0.5" fill="#A2A2A2"/>
<rect x="200" y="8" width="2.31429" height="14" rx="0.5" fill="#A2A2A2"/>
<rect x="153.714" y="10" width="2.31429" height="10" rx="0.5" fill="#A2A2A2"/>
<rect x="204.629" y="10" width="2.31429" height="10" rx="0.5" fill="#A2A2A2"/>
<rect x="167.6" y="12" width="2.31429" height="6" rx="0.5" fill="#A2A2A2"/>
<rect x="218.514" y="12" width="2.31429" height="6" rx="0.5" fill="#A2A2A2"/>
<rect x="181.486" y="8" width="2.31429" height="14" rx="0.5" fill="#A2A2A2"/>
<rect x="232.4" y="12" width="2.31429" height="6" rx="0.5" fill="#A2A2A2"/>
<rect x="172.229" y="7" width="2.31429" height="16" rx="0.5" fill="#A2A2A2"/>
<rect x="223.143" y="9" width="2.31429" height="12" rx="0.5" fill="#A2A2A2"/>
<rect x="176.857" y="6" width="2.31429" height="18" rx="0.5" fill="#A2A2A2"/>
<rect x="227.771" y="11" width="2.31429" height="8" rx="0.5" fill="#A2A2A2"/>
<rect x="158.343" y="12" width="2.31429" height="6" rx="0.5" fill="#A2A2A2"/>
<rect x="209.257" y="12" width="2.31429" height="6" rx="0.5" fill="#A2A2A2"/>
<rect x="162.971" y="14" width="2.31429" height="2" rx="0.5" fill="#A2A2A2"/>
<rect x="213.886" y="9" width="2.31429" height="12" rx="0.5" fill="#A2A2A2"/>
<rect x="186.114" y="11" width="2.31429" height="8" rx="0.5" fill="#A2A2A2"/>
<rect x="237.029" y="14" width="2.31429" height="2" rx="0.5" fill="#A2A2A2"/>
<rect x="190.743" y="9" width="2.31429" height="12" rx="0.5" fill="#A2A2A2"/>
<rect x="241.657" y="14" width="2.31429" height="2" rx="0.5" fill="#A2A2A2"/>
<rect x="246.286" y="9" width="2.31429" height="12" rx="0.5" fill="#A2A2A2"/>
<rect x="250.914" y="8" width="2.31429" height="14" rx="0.5" fill="#A2A2A2"/>
<rect x="255.543" y="10" width="2.31429" height="10" rx="0.5" fill="#A2A2A2"/>
<rect x="269.429" y="12" width="2.31429" height="6" rx="0.5" fill="#A2A2A2"/>
<rect x="274.057" y="9" width="2.31429" height="12" rx="0.5" fill="#A2A2A2"/>
<rect x="278.686" y="11" width="2.31429" height="8" rx="0.5" fill="#A2A2A2"/>
<rect x="260.171" y="12" width="2.31429" height="6" rx="0.5" fill="#A2A2A2"/>
<rect x="264.8" y="14" width="2.31429" height="2" rx="0.5" fill="#A2A2A2"/>
<rect x="61.1429" y="14" width="2.31429" height="2" rx="0.5" fill="white"/>
<rect x="112.057" y="14" width="2.31429" height="2" rx="0.5" fill="white"/>
<rect x="56.5143" y="14" width="2.31429" height="2" rx="0.5" fill="white"/>
<rect x="51.8857" y="13" width="2.31429" height="4" rx="0.5" fill="white"/>
<rect x="47.2571" y="11" width="2.31429" height="8" rx="0.5" fill="white"/>
<rect x="42.6286" y="13" width="2.31429" height="4" rx="0.5" fill="white"/>
<rect x="38" y="14" width="2.31429" height="2" rx="0.5" fill="white"/>
</svg>
